<svg width="1379" height="271" viewBox="0 0 1379 271" fill="none" xmlns="http://www.w3.org/2000/svg">
<path d="M1.6665 0.956787V68.4568H275.439V0.956787H1.6665ZM274.939 0.956787V68.4568H543.11V0.956787H274.939ZM826.765 0.956787V68.4568H1104.87V0.956787H826.765ZM1104.37 0.956787V68.4568H1377.12V0.956787H1104.37ZM1.6665 67.9568V268.457H275.439V67.9568H1.6665ZM274.939 67.9568V268.457H543.11V67.9568H274.939ZM826.765 67.9568V268.457H1104.87V67.9568H826.765ZM1104.37 67.9568V268.457H1377.12V67.9568H1104.37Z" fill="#F8F5F1"/>
<path d="M542.61 0.956787V68.4568H827.265V0.956787H542.61ZM542.61 67.9568V268.457H827.265V67.9568H542.61Z" fill="#FFE8EF"/>
</svg>
