<svg width="639" height="586" viewBox="0 0 639 586" fill="none" xmlns="http://www.w3.org/2000/svg">
<path d="M359.325 0.564941L354.301 0.795445C318.018 0.548453 268.932 10.4035 207.045 30.3608C156.141 48.5237 119.241 66.9761 96.3439 85.718C74.2483 103.611 61.0322 116.13 56.6956 123.276C48.5672 133.62 41.5509 144.755 35.6467 156.68C18.6693 193.387 8.39211 233.025 4.81531 275.595C-1.13422 329.731 -1.17706 380.377 4.6868 427.534C13.1899 469.699 23.6237 496.506 35.9881 507.955C44.013 522.481 68.9383 536.522 110.764 550.076L236.722 579.605C262.871 584.166 282.891 585.918 296.782 584.862C351.412 582.41 413.132 556.96 481.943 508.513L574.442 441.476C594.48 425.369 605.825 415.295 608.476 411.253C623.639 392.311 631.485 380.29 632.015 375.19C635.777 365.414 637.881 356.796 638.326 349.338C641.349 328.804 633.113 300.959 613.619 265.804C577.637 207.275 538.651 151.909 496.661 99.7061C463.992 58.0239 440.878 32.9876 427.318 24.5973C407.214 9.18607 384.549 1.17531 359.325 0.564941Z" fill="#FFE6D5"/>
</svg>
