<svg width="805" height="723" viewBox="0 0 805 723" fill="none" xmlns="http://www.w3.org/2000/svg">
<path d="M733.518 12.979C672.18 -4.83719 607.591 -3.8833 547.908 18.9322C532.518 24.8152 516.475 29.4422 500.88 34.8596C477.797 42.8803 454.702 50.9523 431.138 57.4699C407.22 64.0864 382.77 69.1371 357.944 70.4957C333.208 71.8486 308.876 68.1889 284.25 66.7048C262.224 65.3785 239.817 66.4996 219.4 75.6243C203.094 82.9096 189.177 94.649 178.077 108.539C154.003 138.659 142.758 176.188 135.277 213.401C126.302 258.046 120.607 305.283 94.9339 344.147C72.3825 378.284 38.3578 403.342 17.7237 438.921C-3.18218 474.969 -5.4244 519.726 11.873 557.675C27.8327 592.686 59.7824 617.614 94.6147 632.236C186.255 670.704 286.824 637.11 381.991 650.51C406.608 653.976 430.123 661.108 452.684 671.513C474.166 681.421 494.701 693.251 516.234 703.054C551.096 718.927 591.781 729.57 629.454 716.92C665.704 704.749 685.609 672.013 688.864 635.073C692.848 589.839 673.13 548.356 659.278 506.492C644.211 460.954 641.245 413.669 654.932 367.328C668.617 320.993 698.564 285.361 730.086 249.951C758.621 217.897 787.748 183.958 799.971 141.908C810.481 105.757 804.747 68.092 778.222 40.3188C765.922 27.4413 750.466 18.2729 733.518 12.979C727.669 11.151 725.167 20.3194 730.993 22.1398C767.159 33.4402 795.55 66.5148 795.858 105.29C796.211 149.806 769.378 189.599 741.738 222.235C714.446 254.458 683.405 284.358 663.32 321.963C643.932 358.258 634.606 399.863 636.571 440.964C638.72 485.956 657.703 525.799 670.635 568.204C682.015 605.516 687.321 652.656 660.488 685.041C635.052 715.742 590.843 717.171 555.094 707.535C512.386 696.024 475.891 668.938 434.6 653.718C345.589 620.906 250.234 650.63 158.681 639.115C118.375 634.045 77.6593 619.735 47.7846 591.303C16.4505 561.479 2.76921 517.304 13.1404 475.057C23.0651 434.623 55.068 406.696 81.5053 376.644C94.1302 362.294 105.649 347.047 114.033 329.793C123.169 310.995 129.042 290.856 133.626 270.523C148.914 202.678 156.774 97.7482 240.522 78.5449C264.123 73.1332 288.751 76.4642 312.541 78.6152C335.055 80.6503 357.276 80.8916 379.728 77.9197C424.647 71.9759 467.426 56.4894 510.026 41.7231C530.329 34.6848 550.701 26.7306 571.311 20.5759C601.313 11.6146 632.962 8.49261 664.177 10.3016C686.876 11.6165 709.181 15.8026 730.997 22.1398C736.876 23.848 739.388 14.6834 733.518 12.979Z" fill="#E20D24"/>
</svg>
