<svg width="881" height="572" viewBox="0 0 881 572" fill="none" xmlns="http://www.w3.org/2000/svg">
<path d="M12.9824 219.439C15.4205 199.373 13.867 179.046 14.8977 158.858C15.9284 138.671 19.8832 117.834 31.8461 101.541C44.63 84.1287 65.1575 73.9073 86.0016 68.2392C106.846 62.5711 128.537 60.8417 149.745 56.7393C212.592 44.5822 270.331 11.7943 333.666 2.50597C371.297 -3.0127 411.316 0.410918 444.491 19.0118C467.359 31.8342 485.809 51.08 506.114 67.6654C516.267 75.9581 526.996 83.6577 538.769 89.4237C550.541 95.1897 563.429 98.9858 576.537 99.1827C598.075 99.5061 618.569 90.2252 637.281 79.5543C655.993 68.8833 674.015 56.5248 694.435 49.6653C718.262 41.6612 744.552 41.6696 768.677 48.7252C792.802 55.7809 814.731 69.7376 832.093 87.9135C866.816 124.265 882.25 176.265 880.714 226.513C879.417 268.972 867.021 310.173 857.135 351.485C851.315 375.805 846.321 400.396 838.075 424.004C829.829 447.612 818.103 470.443 800.544 488.247C785.418 503.584 766.443 514.697 746.565 522.997C726.687 531.296 705.813 536.916 685.003 542.481C625.568 558.375 564.871 574.155 503.44 570.776C433.277 566.917 366.151 538.223 295.939 535.407C273.494 534.506 251.002 536.272 228.562 535.274C206.122 534.275 183.246 530.303 163.892 518.901C142.23 506.139 126.737 485.17 113.54 463.77C100.343 442.37 88.6713 419.762 71.9316 401.003C60.1067 387.751 46.0229 376.735 33.2722 364.372C20.5215 352.008 8.82362 337.791 3.55053 320.832C-1.54292 304.45 -0.252928 286.751 2.87514 269.883C6.0032 253.016 10.9132 236.469 12.9824 219.439Z" fill="#FFE6D5"/>
</svg>
