<svg width="976" height="752" viewBox="0 0 976 752" fill="none" xmlns="http://www.w3.org/2000/svg">
<path d="M720.9 468.167C721.985 470.878 723.069 473.589 724.153 476.842C721.985 476.842 720.358 476.3 718.189 476.3C686.2 476.3 660.176 499.071 634.693 521.301C627.102 528.349 618.969 535.398 610.295 541.904C576.679 567.929 539.81 579.857 505.653 576.604C464.989 572.266 430.831 542.988 424.325 507.204C423.241 501.24 423.241 495.276 423.241 489.854C423.241 434.009 474.206 400.394 519.75 370.573C544.148 354.308 566.92 339.127 582.101 321.777C583.185 320.693 584.27 319.066 585.354 317.982C587.523 319.066 590.234 320.693 592.402 322.319C591.318 323.946 589.691 325.572 588.065 327.199C572.342 345.633 548.485 361.356 523.545 377.622C473.122 410.695 421.614 444.853 432.458 506.12C435.169 521.843 444.928 537.024 457.941 547.868C470.953 559.254 488.303 566.844 506.737 569.013C538.726 572.266 573.426 560.88 605.415 535.94C613.548 529.976 621.68 522.385 629.271 515.879C655.838 492.565 682.947 468.709 718.189 468.709C718.731 468.167 719.816 468.167 720.9 468.167ZM953.498 502.867C942.654 489.854 929.641 479.01 916.629 468.167C905.785 458.95 894.942 449.732 885.182 439.431C867.29 419.37 851.025 386.297 865.121 359.188C872.17 345.633 885.182 336.416 899.279 327.199C905.785 322.861 912.834 317.982 918.798 312.56C971.932 267.016 967.594 181.893 933.437 128.759C903.074 81.589 850.482 46.347 772.95 19.2377C738.25 7.30968 693.249 -5.16057 649.332 3.51439C611.379 11.105 568.004 40.383 561.498 86.4687C557.16 119 570.173 151.531 582.643 183.52C599.993 227.979 616.801 269.727 589.691 310.933C591.86 312.56 594.571 313.644 596.74 315.271C626.018 270.812 608.126 225.268 590.234 180.809C578.306 149.904 565.293 118.458 569.631 88.0952C575.052 45.8048 615.716 19.2377 650.416 12.1893C692.164 4.05657 736.081 15.9846 769.697 27.3705C845.603 53.3954 896.568 88.0952 926.388 133.639C958.919 183.52 963.257 263.763 913.376 306.596C907.412 311.475 900.906 315.813 894.399 320.693C880.303 330.452 865.664 340.211 857.531 355.935C841.265 386.839 858.615 423.708 878.676 445.395C888.435 456.239 899.821 465.998 911.207 475.215C923.677 485.517 936.69 496.36 946.991 508.831C964.883 530.518 976.811 565.218 959.462 589.616C941.027 615.099 899.821 614.014 872.712 596.665C851.567 583.11 835.301 561.965 820.12 541.362C815.24 534.855 810.361 528.349 804.939 521.843C780.541 491.481 755.058 474.131 729.575 469.793C730.66 473.046 731.744 475.757 732.828 479.01C755.058 483.89 776.745 500.156 798.433 527.265C803.312 533.229 808.192 539.735 813.072 546.241C828.795 567.387 845.061 588.532 867.832 603.171C881.929 612.388 899.279 617.268 915.545 617.268C935.063 617.268 954.04 610.219 965.426 593.954C986.029 565.218 973.558 526.723 953.498 502.867Z" fill="#FF7E02"/>
<path d="M742.588 517.505C740.419 504.493 737.166 490.938 733.371 478.468C732.286 475.215 731.202 472.504 730.117 469.251C707.346 408.526 660.718 353.765 597.824 315.27C595.656 313.644 592.945 312.559 590.776 310.933C589.149 309.849 586.981 308.764 585.354 307.68C564.751 296.294 543.064 286.535 522.461 277.317C504.569 269.185 486.676 261.052 468.784 251.835C423.241 227.979 392.878 200.869 374.986 168.88C369.565 159.121 365.227 148.82 361.432 139.06C356.01 125.506 350.046 110.867 341.371 98.3964C318.599 65.8653 283.357 49.5998 257.332 41.467C224.801 31.7077 190.644 29.5389 157.57 27.3702C115.822 24.6593 78.4113 23.5749 47.5067 43.0936C5.75851 69.1184 -11.0492 128.759 8.46943 179.724C23.1084 217.677 56.1817 250.208 101.183 271.896C110.942 276.233 121.244 280.028 131.003 283.281C142.931 287.619 155.402 291.956 166.787 297.92C178.715 304.427 188.475 313.102 199.318 322.319C205.283 327.741 211.789 333.162 218.837 338.584C230.223 347.259 241.067 354.308 251.91 361.356C295.285 390.634 329.985 413.406 331.069 477.384C331.612 500.155 326.19 524.012 320.768 547.325C312.635 584.736 303.96 623.231 318.599 660.642C329.443 688.836 355.468 713.234 389.083 727.331C419.446 740.343 453.061 744.681 484.508 747.934C503.484 750.103 523.545 751.729 543.606 751.729C570.173 751.729 596.74 749.018 622.223 739.801C704.093 709.981 757.227 612.388 742.588 517.505ZM619.512 731.668C576.679 747.392 527.882 744.139 485.592 739.801C454.688 736.548 422.156 732.753 392.878 720.282C377.155 713.776 363.058 704.559 351.672 693.715C340.287 682.872 331.612 670.944 326.732 657.931C313.177 622.689 320.768 586.905 329.443 549.494C334.865 526.18 340.287 501.782 339.744 477.926C338.118 409.61 300.707 384.128 256.79 354.85C245.946 347.801 235.103 340.753 224.259 332.078C217.753 327.198 211.789 321.777 205.283 316.355C194.981 307.138 184.137 297.92 171.667 290.872C159.739 284.366 146.727 280.028 134.256 275.691C124.497 272.438 114.195 268.642 104.978 264.305C61.6035 243.702 30.1568 212.797 16.06 176.471C-2.37427 129.301 13.3491 73.4559 51.302 49.5998C71.9051 37.1295 95.219 33.3342 121.786 33.3342C133.172 33.3342 144.558 33.8764 157.028 34.9608C189.559 37.6717 223.717 39.8405 255.164 49.5998C279.562 57.1904 313.177 72.3715 334.322 103.276C342.455 115.204 347.877 128.759 353.299 142.313C357.636 152.615 361.974 163.459 367.396 173.218C385.83 206.291 417.277 234.485 464.447 259.425C482.339 268.642 500.773 276.775 518.665 284.908C539.268 294.125 560.956 303.884 581.017 315.27C582.643 316.355 584.27 316.897 585.354 317.981C587.523 319.066 590.234 320.692 592.402 322.319C652.585 359.187 698.129 411.237 720.358 468.709C721.442 471.42 722.527 474.131 723.611 477.384C728.491 490.938 732.286 505.035 734.455 519.132C748.552 609.677 697.586 703.475 619.512 731.668Z" fill="#E20D24"/>
</svg>
