<svg width="617" height="680" viewBox="0 0 617 680" fill="none" xmlns="http://www.w3.org/2000/svg">
<path d="M450.845 53.7555C450.735 53.6474 418.745 22.274 398.683 14.3326C397.101 13.7062 395.498 13.1085 393.874 12.5393C358.757 0.229265 314.793 1.49619 283.585 20.5648C261.633 33.9786 249.452 60.2767 238.807 84.5724C233.87 95.842 229.311 107.401 224.733 119.009C220.145 130.644 215.535 142.333 210.518 153.784C201.593 174.156 191.346 193.847 177.529 211.299C157.196 236.981 128.688 255.064 100.622 272.886C72.6538 290.648 45.1316 308.147 25.697 332.694C22.3625 336.905 19.2696 341.32 16.4547 345.979C-5.54759 382.394 5.90339 432.792 17.2524 474.948C36.4945 546.424 76.4026 627.549 143.975 655.645C147.064 656.93 150.182 658.118 153.339 659.225C182.502 669.448 214.293 672.392 245.444 674.388C304.937 678.202 365.025 675.234 424.241 667.93C463.864 663.042 503.524 656.427 541.471 644.423C569.427 635.579 602.734 620.188 610.325 593.158C617.822 566.465 607.447 536.718 597.352 510.006C590.437 491.71 582.388 473.876 574.305 455.969C567.519 440.934 560.704 425.837 554.573 410.474C536.784 365.898 527.512 318.543 518.291 271.478C515.04 254.885 511.801 238.35 508.191 221.931C500.021 184.773 491.468 147.628 478.918 111.846C471.773 91.4738 450.554 53.3879 450.525 53.3352L450.845 53.7555ZM453.445 51.1085C453.572 51.2326 453.68 51.3742 453.766 51.5289C453.737 51.4763 475.145 89.8767 482.419 110.618C495.052 146.635 503.645 183.979 511.815 221.135C515.434 237.598 518.683 254.183 521.932 270.765C531.165 317.89 540.38 364.898 558.019 409.099C564.117 424.378 570.893 439.391 577.687 454.442C585.764 472.337 593.858 490.266 600.822 508.695C610.833 535.183 621.778 566.101 613.898 594.162C605.701 623.346 570.304 639.194 542.59 647.96C504.324 660.066 464.406 666.714 424.696 671.612C365.302 678.938 304.978 681.923 245.206 678.091C214.05 676.094 181.802 673.134 152.111 662.726C148.889 661.596 145.71 660.385 142.55 659.071C73.2607 630.261 32.9583 547.561 13.6696 475.912C2.41767 434.116 -9.68031 382.059 13.2791 344.06C16.1794 339.26 19.3634 334.716 22.7881 330.39C42.6815 305.264 70.7763 287.445 98.6333 269.754C126.806 251.863 154.745 234.1 174.62 208.996C188.156 191.9 198.253 172.533 207.12 152.295C212.105 140.917 216.688 129.296 221.282 117.648C225.855 106.05 230.438 94.428 235.409 83.0835C245.959 59.0042 258.536 31.5226 281.651 17.3988C314.011 -2.37417 359.18 -3.55397 395.101 9.03799C396.771 9.62343 398.42 10.2379 400.049 10.8827C420.972 19.1647 453.555 51.2164 453.445 51.1085Z" fill="#FFB301" fill-opacity="0.961"/>
</svg>
