<svg width="73" height="59" viewBox="0 0 73 59" fill="none" xmlns="http://www.w3.org/2000/svg">
<path d="M33.5271 18.5337C30.2223 16.9435 26.4219 16.0677 22.4011 16.1017C22.1186 15.7142 26.3169 8.69628 26.7666 7.55277C27.0713 6.77761 27.8983 5.07936 27.3702 4.43882C27.0906 4.10005 20.1393 0.645854 19.5091 0.565971C17.4454 0.305612 14.6333 1.58818 12.614 2.28641C10.9971 2.8456 6.31212 4.49799 5.16713 5.44179C4.77067 5.76872 0.810544 13.3961 0.86232 13.865C1.0428 15.5041 10.8728 18.6965 12.4054 19.7053C5.27068 25.2395 0.167042 33.0133 2.65229 42.3463C7.69084 61.2667 31.9338 63.749 41.6174 48.2798C42.4828 48.7458 43.4074 49.157 44.4015 49.5002C64.5587 56.4648 81.2838 33.6331 68.5543 16.1062C59.1695 3.18436 41.9311 6.39595 33.5285 18.5322L33.5271 18.5337ZM26.8258 17.1949C40.6426 19.3044 47.7107 32.1952 43.1678 44.0149C42.5346 43.5475 41.9207 43.0312 41.3319 42.475C41.8615 40.7811 42.1633 38.9527 42.1855 37.0104C42.3319 24.3178 31.9738 19.226 20.7428 19.4716C21.0786 16.1003 24.2414 16.8015 26.8258 17.1964V17.1949ZM36.9191 20.5412C40.9917 14.8014 49.8217 9.3605 57.8011 12.1682C77.6402 19.1491 69.2022 50.3405 48.8498 46.6333C47.0643 46.3079 45.2787 45.4898 43.6086 44.3315C43.6885 44.1303 43.7669 43.9276 43.8423 43.7205C47.3616 34.071 43.8201 25.4895 36.9191 20.5426V20.5412ZM40.931 42.0859C36.604 37.7855 33.7578 31.3416 35.1099 26.2883C35.1144 26.2735 35.6691 24.914 35.8688 24.4229C38.6041 26.5058 40.2535 29.3002 41.1012 32.6005C41.9961 36.0873 41.8408 39.2811 40.9325 42.0874L40.931 42.0859ZM18.5194 21.1935C18.762 21.1403 19.1881 20.3267 20.623 20.3414C25.4973 20.3917 29.3554 21.1225 32.3688 22.411C31.5463 25.059 31.098 26.6981 31.0744 28.7588C30.9974 35.6302 33.7253 42.2176 38.7698 46.3744C31.6602 56.4293 13.6037 58.3421 7.5148 44.4321C4.28693 37.0577 9.07843 24.2971 16.7102 21.6714C17.8996 21.2616 18.3626 21.2276 18.5179 21.1935H18.5194ZM18.3848 20.4805L9.81513 12.6934C9.82549 12.3043 16.1999 10.0188 17.0135 9.72737C17.4499 9.57056 19.7384 8.71256 19.9322 8.83978L18.3848 20.482V20.4805ZM19.1925 20.4125C19.0535 20.4184 18.9987 19.6595 19.0002 19.5426C19.0194 18.6994 20.3967 9.50399 20.6171 9.02025C20.947 8.29835 25.1172 6.28056 25.95 6.06458C26.2119 5.99654 26.2962 6.06015 26.5107 6.18589L19.1925 20.4125ZM20.5121 1.67989L26.129 4.75687L26.0698 5.19327L20.484 7.40336L20.5121 1.67989ZM19.9514 1.55859C20.1008 1.78049 19.407 6.14447 19.7961 6.90927C19.5239 7.1933 13.3551 3.77313 13.0534 2.96838C14.2235 2.68287 19.1866 0.419519 19.9499 1.55859H19.9514ZM19.552 7.71994L9.55921 11.6372L12.3122 3.84413C12.932 3.49797 18.6614 7.10454 19.552 7.71994ZM8.02516 4.67847C8.46748 4.48172 11.7382 3.26128 11.9379 3.65922L8.93346 11.0173L5.23665 6.56015C5.22038 5.98618 7.50888 4.90628 8.02516 4.67699V4.67847ZM4.68043 7.06164L8.50446 11.8916L2.47921 13.4212C1.77802 13.1919 4.54581 7.82201 4.68043 7.06312V7.06164ZM2.73217 14.1653L9.06808 12.6342L17.4514 20.4849L2.73217 14.1653ZM39.9591 49.7132C23.6423 71.1071 -11.8465 46.3064 9.00891 23.4598C9.47045 22.9539 12.6746 20.0988 13.0326 20.0145C13.3477 19.9406 15.2901 20.911 15.7753 21.056C6.04288 28.1522 0.761726 41.1036 11.037 50.5091C20.1215 58.8243 33.499 55.8849 39.3127 46.8049C39.8866 47.2413 40.4961 47.6466 41.1411 48.0194C40.7772 48.5904 40.3852 49.157 39.9591 49.7147V49.7132ZM41.9059 47.8035C41.866 47.7739 41.5065 47.5934 41.4429 47.5283C40.826 47.1496 40.2269 46.7265 39.6485 46.2576C39.5316 46.1555 39.3526 45.9765 39.1411 45.8315C36.0818 43.1673 33.6291 39.1909 32.2904 33.676C32.1291 33.0103 31.6306 29.8135 31.6306 28.3771C31.6306 28.2957 32.5034 22.9539 32.7075 22.8104C32.9945 22.6078 34.9058 23.7513 35.2224 24.0678C35.5818 24.4273 34.5404 26.0294 34.3244 27.3001C33.5315 31.9556 36.0463 38.4941 40.7313 42.8759C40.8556 43.0134 41.0805 43.225 41.0893 43.2028C41.6677 43.7176 43.0465 44.7561 43.1249 44.7856C46.622 47.1348 50.9711 48.2872 55.8573 47.1082C71.4537 43.3463 75.2881 22.8637 62.066 13.7334C52.4623 7.10158 42.6589 12.1668 36.5123 20.2556C35.7623 19.7423 34.9738 19.2719 34.1528 18.8459C34.6543 17.8029 36.1869 16.3369 37.0493 15.4005C48.0776 3.42697 66.1238 7.21401 71.3576 22.6788C77.9479 42.1495 55.9239 55.8361 41.9074 47.8049L41.9059 47.8035Z" fill="#FE4475"/>
</svg>
