<svg width="218" height="373" viewBox="0 0 218 373" fill="none" xmlns="http://www.w3.org/2000/svg">
<path d="M91.9994 5.12915C91.6936 5.03997 91.4182 5.11215 91.1812 5.32837C90.1447 4.93197 90.1772 3.13765 88.635 3.40093C85.496 1.93506 83.472 3.6686 81.6545 5.88708C76.5778 12.1172 72.6191 19.0446 69.082 26.2199C56.4374 51.9264 49.7454 79.0883 47.8021 107.716C44.3966 157.693 57.9971 203.005 84.0072 245.034C96.0641 264.521 111.297 281.535 127.321 297.843C136.742 307.428 146.704 316.413 156.455 325.647C156.952 325.824 157.443 325.989 157.94 326.167C158.169 326.715 158.587 327.266 158.551 327.797C158.551 327.797 158.551 327.797 158.543 327.814C158.509 328.229 157.913 328.174 157.562 327.843C152.323 327.276 147.377 325.624 142.521 323.71C139.195 322.399 135.872 321.374 132.277 321.369C125.142 318.492 119.341 320.431 115.927 326.57C126.037 338.116 139.7 342.41 153.95 345.64C159.25 346.845 164.45 348.404 169.677 349.881C182.19 353.431 180.579 352.211 188.237 344.905C189.952 343.271 191.259 341.268 192.349 339.143C192.753 338.363 193.051 337.607 192.731 336.733C194.581 334.761 193.826 332.622 192.989 330.572C190.499 324.484 187.938 318.437 185.398 312.367C185.634 310.814 184.926 309.55 184.155 308.309C184.451 306.763 183.713 305.495 183.044 304.217C183.431 303.155 182.806 302.234 182.593 301.263C179.762 288.084 178.451 274.779 179.415 261.288C179.488 260.269 179.475 259.254 179.505 258.237C179.55 257.027 179.608 255.654 178.313 255.18C177.333 254.821 176.042 255.495 175.625 256.28C173.764 259.751 170.084 261.516 167.992 264.712C167.06 266.132 166.785 267.814 166.537 269.529C164.553 282.747 164.964 295.95 166.724 309.148C166.883 310.326 167.229 311.507 167.14 312.675C167.035 314.036 165.926 314.069 164.838 313.807C164.526 312.484 163.689 311.77 162.373 311.591C161.852 310.445 161.257 309.369 159.809 309.224C159.842 308.881 159.684 308.724 159.347 308.747C158.883 307.637 158.274 306.682 156.949 306.477C156.467 305.791 156.073 305.03 155.484 304.441C149.054 297.957 142.521 291.583 136.166 285.028C130.392 279.08 124.815 272.959 119.162 266.909C117.863 265.128 116.635 263.307 115.273 261.593C102.127 244.82 91.1951 226.718 83.0006 207.024C80.0773 199.988 77.3695 192.873 74.5729 185.79C74.8363 184.156 74.0214 182.873 73.2271 181.569C73.5184 180.01 72.7647 178.777 72.019 177.527C72.4028 176.064 71.5962 174.922 71.0097 173.714C71.3533 172.768 71.0227 171.984 70.4294 171.267C70.53 170.914 70.4405 170.63 70.1436 170.409C70.5054 169.356 69.9104 168.439 69.7281 167.47C68.8479 162.676 67.1149 158.064 66.8248 153.154C66.3133 152.896 65.6449 151.66 65.5584 153.503C65.4923 154.734 65.1987 154.914 64.8257 154.72C64.5047 154.55 64.1242 154.1 63.7948 153.79C61.4923 138.563 61.053 123.243 61.6202 107.884C61.8046 106.465 61.9844 105.034 62.1688 103.615C63.272 95.1325 64.3706 86.6371 65.4611 78.1591C65.7142 77.9082 65.8426 77.6311 65.8638 77.3359C65.8748 77.1306 65.8432 76.9266 65.7642 76.7112C66.1749 76.3019 66.259 75.8255 66.0513 75.2979C66.4793 74.8967 66.5634 74.4203 66.3384 73.8846C66.7836 73.4915 66.8678 73.015 66.6381 72.4667C67.0834 72.0735 67.1975 71.6005 66.9552 71.0568C67.4178 70.6717 67.5192 70.2033 67.2769 69.6596L67.2849 69.6423C67.7395 69.2745 67.8536 68.8014 67.6159 68.2704L67.6193 68.2404C67.76 67.8008 67.8788 67.3404 67.9676 66.8766L67.979 66.8293C68.4336 66.4615 68.557 66.0138 68.3273 65.4655L68.3387 65.4182C68.7933 65.0503 68.9167 64.6026 68.687 64.0543L68.6985 64.007C69.1703 63.6472 69.2891 63.1868 69.0594 62.6385L69.0628 62.6085C69.5347 62.2488 69.6535 61.7884 69.4238 61.2401L69.4318 61.2227C69.8991 60.8503 70.0305 60.3853 69.8135 59.8323C71.2479 55.6268 72.6869 51.434 74.1213 47.2285C74.1822 44.8057 75.359 42.7214 76.2172 40.5526C76.4939 40.5231 76.7385 40.5628 76.967 40.6372C77.3247 40.7505 77.617 40.9596 77.8703 41.298C78.6909 39.7324 79.6327 38.2229 79.6892 36.3766C79.6556 35.814 79.6992 35.2662 79.97 34.7501C79.8791 35.2865 79.7755 35.8275 79.6892 36.3766C80.056 35.926 80.3454 35.4606 80.0384 34.8975C80.8064 34.4436 81.1102 33.7429 81.1358 32.8711C81.6355 32.5873 81.8628 32.1878 81.6792 31.6082C82.1025 31.1943 82.3839 30.7462 82.229 30.1274C82.4673 29.9539 82.6189 29.7401 82.6308 29.4196C83.7044 28.0343 84.4363 26.5012 84.7998 24.7868C85.5042 23.7668 86.2431 22.7629 86.3587 21.47C87.0447 20.9886 87.2227 20.219 87.4573 19.4862C90.2424 15.4757 92.2746 10.9793 95.9843 7.33437C94.2623 6.71482 93.8124 4.78102 91.9994 5.12915ZM158.469 309.255C158.465 309.242 158.465 309.242 158.46 309.23C158.448 309.234 158.452 309.247 158.452 309.247C158.448 309.234 158.456 309.217 158.456 309.217L158.46 309.23C158.473 309.225 158.486 309.22 158.494 309.203C158.49 309.233 158.478 309.238 158.469 309.255ZM66.2701 62.1658C66.2219 62.2697 66.1737 62.3736 66.1255 62.4775C66.1289 62.4475 66.1323 62.4175 66.1357 62.3875C66.1585 62.2929 66.1813 62.1983 66.2168 62.099C66.2215 62.1117 66.2434 62.1324 66.2701 62.1658ZM65.4332 78.083C65.4206 78.0877 65.4159 78.075 65.4033 78.0796C65.3686 78.0636 65.326 78.0648 65.2913 78.0488L65.1701 77.9926L65.4159 78.075C65.4286 78.0703 65.424 78.0577 65.4366 78.053C65.424 78.0577 65.4286 78.0704 65.4332 78.083ZM65.9208 61.7619C66.0179 61.87 66.1151 61.9782 66.1949 62.0783C66.1721 62.1729 66.1492 62.2675 66.1264 62.3622C66.1501 62.1522 66.0885 61.9448 65.9208 61.7619ZM65.94 62.9911C65.9091 63.103 65.8783 63.2149 65.8428 63.3142C65.8301 63.3188 65.8348 63.3315 65.8221 63.3361C65.8656 63.2196 65.9091 63.103 65.94 62.9911ZM84.5605 10.6007C84.5558 10.588 84.5639 10.5707 84.5592 10.558L84.5673 10.5407C84.5799 10.5361 84.588 10.5187 84.6006 10.5141C84.5972 10.5441 84.5765 10.566 84.5605 10.6007ZM83.3323 12.3876C83.3069 12.3969 83.2816 12.4062 83.2782 12.4361C83.3035 12.4269 83.3196 12.3922 83.3323 12.3876ZM79.7569 33.8938C79.6864 33.8191 79.6032 33.7489 79.4946 33.6881C79.5533 33.6522 79.612 33.6163 79.6708 33.5804C79.6952 33.6864 79.7324 33.7878 79.7569 33.8938ZM81.7263 30.5991C81.7766 30.4226 81.8915 30.2655 82.0584 30.1324C82.0584 30.1324 82.0584 30.1324 82.063 30.1451C81.9134 30.2862 81.7939 30.4306 81.7263 30.5991Z" fill="#FF7E02"/>
<path d="M67.965 66.7913C67.8462 67.2516 67.7401 67.7074 67.6167 68.1551C68.0839 67.7826 68.19 67.3269 67.965 66.7913Z" fill="#FF7E02"/>
</svg>
