<svg width="207" height="374" viewBox="0 0 207 374" fill="none" xmlns="http://www.w3.org/2000/svg">
<path d="M114.804 5.38003C115.107 5.28125 115.385 5.34469 115.628 5.55333C116.652 5.12441 116.563 3.33202 118.112 3.54649C121.204 1.98229 123.281 3.65108 125.168 5.8111C130.439 11.8779 134.614 18.6769 138.376 25.737C151.825 51.0316 159.371 77.9688 162.217 106.52C167.198 156.365 155.035 202.084 130.364 244.913C118.928 264.771 104.239 282.257 88.7382 299.063C79.6249 308.941 69.9513 318.235 60.4959 327.772C60.0055 327.965 59.5193 328.146 59.0288 328.339C58.8166 328.894 58.4165 329.458 58.4688 329.987C58.4688 329.987 58.4688 329.987 58.4774 330.004C58.5252 330.418 59.1183 330.344 59.4591 330.002C64.6774 329.27 69.5691 327.463 74.3621 325.396C77.6456 323.981 80.934 322.852 84.5274 322.733C91.5676 319.633 97.427 321.388 101.033 327.416C91.2922 339.275 77.7722 343.998 63.6312 347.676C58.3715 349.049 53.2235 350.771 48.0455 352.412C35.6507 356.355 37.223 355.084 29.3382 348.024C27.5722 346.444 26.2024 344.484 25.0457 342.395C24.6173 341.628 24.2957 340.881 24.5884 339.997C22.6766 338.085 23.3636 335.924 24.1361 333.848C26.4324 327.684 28.8014 321.559 31.1489 315.413C30.8641 313.868 31.5315 312.582 32.263 311.317C31.9184 309.781 32.6157 308.491 33.2447 307.192C32.8243 306.143 33.4198 305.203 33.6014 304.225C36.0154 290.964 36.9055 277.624 35.5163 264.17C35.4118 263.154 35.3926 262.139 35.3308 261.123C35.2472 259.915 35.1462 258.545 36.4255 258.031C37.3936 257.64 38.7052 258.274 39.1464 259.045C41.1167 262.455 44.8504 264.104 47.0421 267.232C48.018 268.621 48.3459 270.294 48.6481 272C51.0483 285.15 51.0541 298.359 49.7114 311.606C49.59 312.788 49.2809 313.98 49.4071 315.145C49.555 316.501 50.6647 316.499 51.7439 316.202C52.0143 314.87 52.828 314.13 54.1378 313.91C54.622 312.748 55.1831 311.654 56.6253 311.463C56.5819 311.122 56.7352 310.96 57.0724 310.972C57.5012 309.848 58.0796 308.874 59.398 308.628C59.8575 307.927 60.2272 307.154 60.7979 306.547C67.0197 299.863 73.3485 293.286 79.4934 286.534C85.0762 280.406 90.458 274.112 95.9168 267.887C97.1593 266.066 98.3292 264.207 99.6359 262.45C112.247 245.271 122.601 226.833 130.17 206.89C132.87 199.765 135.352 192.568 137.924 185.401C137.609 183.776 138.383 182.468 139.136 181.139C138.795 179.591 139.51 178.334 140.216 177.061C139.786 175.611 140.556 174.444 141.104 173.218C140.731 172.284 141.036 171.49 141.607 170.754C141.495 170.405 141.576 170.118 141.865 169.887C141.471 168.847 142.036 167.911 142.188 166.938C142.916 162.117 144.503 157.453 144.638 152.536C145.141 152.262 145.77 151.006 145.915 152.845C146.02 154.074 146.319 154.244 146.685 154.039C147.001 153.859 147.367 153.397 147.686 153.076C149.507 137.784 149.463 122.458 148.411 107.125C148.182 105.713 147.957 104.288 147.728 102.876C146.358 94.4319 144.992 85.9754 143.634 77.536C143.373 77.2933 143.236 77.0204 143.206 76.726C143.188 76.5211 143.213 76.3162 143.285 76.0984C142.862 75.7023 142.763 75.2288 142.954 74.6949C142.514 74.3074 142.414 73.8339 142.622 73.2914C142.165 72.9125 142.066 72.4389 142.278 71.8836C141.821 71.5047 141.692 71.0355 141.917 70.4845C141.442 70.1141 141.326 69.6491 141.551 69.0981L141.542 69.081C141.077 68.7278 140.948 68.2585 141.168 67.7203L141.164 67.6904C141.009 67.2554 140.876 66.799 140.773 66.3383L140.76 66.2914C140.294 65.9381 140.156 65.4945 140.369 64.9392L140.356 64.8923C139.89 64.539 139.752 64.0954 139.965 63.5401L139.952 63.4932C139.469 63.1485 139.336 62.6921 139.548 62.1368L139.543 62.1069C139.06 61.7622 138.927 61.3058 139.139 60.7505L139.131 60.7335C138.652 60.3759 138.506 59.9153 138.706 59.3557C137.139 55.1976 135.568 51.0523 134.002 46.8942C133.865 44.4745 132.623 42.4284 131.697 40.2877C131.419 40.267 131.176 40.3144 130.95 40.396C130.596 40.5205 130.31 40.7387 130.068 41.085C129.198 39.546 128.209 38.067 128.094 36.2234C128.11 35.66 128.049 35.1138 127.762 34.6065C127.87 35.1398 127.991 35.6773 128.094 36.2234C127.714 35.7846 127.41 35.3286 127.699 34.7561C126.917 34.3266 126.591 33.6358 126.538 32.7653C126.03 32.4974 125.79 32.1053 125.955 31.5202C125.519 31.1199 125.223 30.6809 125.359 30.0575C125.115 29.8915 124.957 29.6827 124.935 29.3627C123.818 28.012 123.038 26.5027 122.621 24.8006C121.884 23.8034 121.114 22.8234 120.958 21.5347C120.257 21.0752 120.055 20.3117 119.797 19.5866C116.887 15.666 114.714 11.236 110.891 7.70991C112.593 7.03632 112.981 5.08929 114.804 5.38003ZM57.9655 311.452C57.9697 311.439 57.9697 311.439 57.9739 311.426C57.9868 311.431 57.9825 311.444 57.9825 311.444C57.9868 311.431 57.9782 311.414 57.9782 311.414L57.9739 311.426C57.9611 311.422 57.9483 311.418 57.9397 311.401C57.9441 311.431 57.9569 311.435 57.9655 311.452ZM142.321 61.5762C142.372 61.6785 142.424 61.7809 142.475 61.8832C142.471 61.8533 142.466 61.8235 142.462 61.7936C142.436 61.6998 142.411 61.6059 142.372 61.5078C142.368 61.5206 142.346 61.542 142.321 61.5762ZM143.66 77.4591C143.672 77.4634 143.677 77.4506 143.689 77.4548C143.724 77.4377 143.766 77.4376 143.8 77.4204L143.92 77.3604L143.677 77.4506C143.664 77.4463 143.668 77.4335 143.655 77.4293C143.668 77.4335 143.664 77.4463 143.66 77.4591ZM142.657 61.1615C142.564 61.2727 142.47 61.3839 142.393 61.4864C142.419 61.5803 142.445 61.6741 142.471 61.768C142.44 61.5589 142.495 61.3497 142.657 61.1615ZM142.677 62.3907C142.711 62.5016 142.746 62.6125 142.784 62.7106C142.797 62.7148 142.793 62.7276 142.806 62.7319C142.758 62.6167 142.711 62.5016 142.677 62.3907ZM122.412 10.6141C122.416 10.6012 122.408 10.5842 122.412 10.5714L122.403 10.5543C122.391 10.5501 122.382 10.533 122.369 10.5288C122.374 10.5587 122.395 10.58 122.412 10.6141ZM123.696 12.3613C123.722 12.3698 123.747 12.3783 123.752 12.4081C123.726 12.3997 123.709 12.3656 123.696 12.3613ZM127.948 33.744C128.017 33.667 128.098 33.5943 128.204 33.5301C128.144 33.4961 128.084 33.462 128.025 33.428C128.004 33.5348 127.97 33.6373 127.948 33.744ZM125.876 30.5131C125.82 30.3382 125.7 30.1848 125.529 30.0571C125.529 30.0571 125.529 30.0571 125.525 30.0699C125.679 30.2062 125.803 30.3468 125.876 30.5131Z" fill="#FF7E02"/>
<path d="M140.773 66.2529C140.906 66.7093 141.027 67.1615 141.164 67.6051C140.685 67.2476 140.565 66.7954 140.773 66.2529Z" fill="#FF7E02"/>
</svg>
