<svg width="124" height="57" viewBox="0 0 124 57" fill="none" xmlns="http://www.w3.org/2000/svg">
<path d="M123.418 22.7627C123.081 21.195 122.003 19.5946 122.145 18.3317C122.678 13.7593 119.913 12.3767 116.451 11.2336C101.863 6.38897 87.013 2.6657 71.728 0.81495C66.2628 0.150858 64.9129 1.62057 66.1213 6.98774C66.2737 7.65183 66.5241 8.29415 66.7092 8.95824C67.308 11.19 68.9736 12.2134 71.0312 11.8323C73.0453 11.4513 74.8525 11.9303 76.6923 12.3005C81.4063 13.2367 86.0767 14.3254 90.7689 15.3597C90.9104 15.6101 90.9322 15.8713 90.8342 16.1435C85.7719 16.579 80.7204 17.1777 75.6581 17.4064C62.6702 17.9834 49.9109 21.097 36.7706 20.4873C30.5216 20.2043 24.1746 21.2385 17.9365 22.1312C13.0266 22.8389 8.05134 22.4687 3.19584 23.503C0.724551 24.0255 0.267306 24.657 1.72613 26.671C4.62201 30.6991 7.64853 34.7054 13.6471 33.4099C14.7031 33.1813 15.8354 33.301 16.9349 33.1813C27.1794 32.147 37.4565 31.57 47.7227 30.9168C58.8163 30.2092 69.9099 29.458 81.0035 28.6959C84.705 28.4455 88.3956 28.0972 92.4564 27.7706C91.3241 29.5886 89.8544 30.1221 88.646 30.9495C84.5526 33.7474 80.9164 37.0787 77.1605 40.2903C71.4231 45.1894 73.8836 51.7214 76.6815 55.7278C77.204 56.4789 77.879 56.9035 78.6084 55.8802C80.8184 52.7883 84.1062 50.9594 87.1219 48.8473C95.7659 42.7725 104.824 37.34 113.882 31.9075C116.233 30.4923 118.595 29.0987 120.958 27.727C122.885 26.6166 123.995 25.4081 123.418 22.7627ZM92.4455 15.5556C92.5108 15.523 92.5761 15.5121 92.6414 15.4576C92.5979 15.5121 92.5435 15.5447 92.489 15.5774C92.4781 15.5774 92.4672 15.5665 92.4455 15.5556Z" fill="#FF7E02"/>
</svg>
