<svg width="134" height="57" viewBox="0 0 134 57" fill="none" xmlns="http://www.w3.org/2000/svg">
<path d="M0.599993 22.6225C0.964994 21.0548 2.13065 19.4545 1.97758 18.1916C1.40065 13.6192 4.39129 12.2365 8.1355 11.0934C23.913 6.24883 39.973 2.52556 56.504 0.674814C62.4147 0.0107215 63.8747 1.48043 62.5677 6.84761C62.4029 7.5117 62.1321 8.15402 61.9319 8.81811C61.2843 11.0499 59.4829 12.0732 57.2576 11.6922C55.0793 11.3112 53.1248 11.7902 51.135 12.1603C46.0367 13.0966 40.9856 14.1853 35.9109 15.2195C35.7578 15.4699 35.7343 15.7312 35.8402 16.0034C41.3153 16.4388 46.7785 17.0376 52.2535 17.2662C66.3002 17.8432 80.0995 20.9568 94.311 20.3472C101.069 20.0641 107.934 21.0984 114.68 21.9911C119.991 22.6987 125.371 22.3286 130.623 23.3628C133.295 23.8854 133.79 24.5168 132.212 26.5309C129.08 30.559 125.807 34.5653 119.319 33.2698C118.177 33.0411 116.953 33.1609 115.764 33.0411C104.684 32.0069 93.5693 31.4299 82.4662 30.7767C70.4682 30.0691 58.4703 29.3179 46.4724 28.5558C42.4691 28.3054 38.4777 27.957 34.0859 27.6304C35.3104 29.4485 36.8999 29.982 38.2069 30.8094C42.634 33.6073 46.5666 36.9386 50.6287 40.1502C56.8337 45.0492 54.1727 51.5813 51.1467 55.5876C50.5816 56.3388 49.8516 56.7634 49.0627 55.74C46.6725 52.6482 43.1167 50.8192 39.8553 48.7072C30.5065 42.6324 20.7104 37.1999 10.9142 31.7674C8.37098 30.3521 5.81598 28.9586 3.26097 27.5869C1.17693 26.4764 -0.0240403 25.268 0.599993 22.6225ZM34.0977 15.4155C34.027 15.3828 33.9564 15.3719 33.8857 15.3175C33.9328 15.3719 33.9917 15.4046 34.0506 15.4373C34.0623 15.4373 34.0741 15.4264 34.0977 15.4155Z" fill="#FF7E02"/>
</svg>
