<svg width="797" height="748" viewBox="0 0 797 748" fill="none" xmlns="http://www.w3.org/2000/svg">
<path d="M781.432 404.075C792.878 366.288 791.675 322.391 771.823 288.647C780.331 286.754 796.728 278.984 796.21 279.173C787.622 282.289 778.662 284.267 769.561 285.057C768.757 283.807 767.989 282.536 767.13 281.317C739.433 241.999 692.628 232.27 651.717 220.525C640.069 217.228 628.603 213.316 617.369 208.806C606.533 197.188 596.187 184.935 586.118 172.457C552.093 130.292 519.613 85.6539 476.939 53.8489C441.291 27.1725 399.565 9.7866 355.522 3.25821C312.808 -2.93266 268.172 1.16903 229.037 22.4647C209.754 32.7586 193.215 47.52 180.806 65.5144C168.511 83.6477 161.648 105.024 158.924 127.451C153.462 172.405 161.453 218.904 146.96 262.322C131.942 307.313 99.1764 341.676 70.5509 376.038C42.3221 409.923 14.2935 447.026 4.41729 493.129C-3.91949 532.049 0.690088 573.077 14.202 609.839C28.1199 647.706 51.5223 680.983 81.1916 704.981C112.609 730.391 151.208 743.548 189.647 746.492C229.032 749.507 269.13 741.707 305.798 725.586C325.119 717.072 343.438 706.446 360.421 693.904C381.829 678.138 401.692 659.972 422.08 642.647C442.239 625.516 463.069 609.433 485.886 597.012C507.879 585.04 531.056 576.125 554.384 568.028C601.226 551.768 649.35 538.451 692.709 512.018C732.137 487.983 766.741 452.579 781.432 404.075Z" fill="#FFE6D5"/>
</svg>
