<svg width="463" height="513" viewBox="0 0 463 513" fill="none" xmlns="http://www.w3.org/2000/svg">
<path d="M313.238 55.1865C287.02 46.6756 261.419 58.7161 239.428 74.1412C234.727 75.3574 230.092 76.8176 225.543 78.5158C192.663 90.8701 166.013 115.382 144.452 142.52C133.436 156.388 123.803 171.266 114.517 186.33C113.922 187.278 115.389 188.772 116.117 187.676C143.93 145.758 178.594 101.674 226.133 84.1124C223.569 86.1414 221.07 88.1654 218.647 90.154C191.585 112.392 168.624 139.196 150.802 169.35C114.101 231.448 101.509 306.57 115.213 377.34C120.288 403.562 129.325 431.605 151.262 446.708C142.232 445.842 133.659 442.955 126.186 437.157C97.5021 414.92 97.7469 369.558 99.4783 336.695C101.204 303.956 107.621 271.185 117.643 239.994C122.764 224.055 129.482 208.685 137.075 193.773C137.491 192.957 136.278 191.691 135.741 192.652C118.382 223.731 104.449 258.019 98.051 293.146C94.8036 310.89 92.9491 328.861 92.5045 346.894C92.0587 365.759 91.6726 385.374 96.8265 403.706C105.928 436.036 130.985 458.619 165.62 456.122C167.387 455.994 169.149 455.798 170.908 455.58C205.021 464.471 238.507 446.672 265.11 426.427C317.447 386.599 354.29 329.074 370.593 265.522C378.973 232.856 382.172 193.878 374.273 159.086C372.133 113.837 356.924 69.3735 313.238 55.1865ZM370.818 218.082C365.389 278.658 338.329 336.439 298.134 381.743C277.465 405.037 252.235 427.613 223.532 440.312C217.446 443.01 211.09 445.056 204.573 446.414C223.817 438.487 241.859 426.726 257.521 414.381C313.333 370.397 352.605 302.518 367.705 233.479C368.923 227.881 370.052 221.887 371.023 215.605C370.956 216.432 370.892 217.258 370.818 218.082ZM366.769 156.91C367.309 167.754 366.965 178.543 366.058 188.765C360.489 252.621 330.272 315.784 290.734 365.58C270.526 391.03 246.319 413.626 217.413 428.813C204.12 435.797 187.133 443.196 170.218 445.915C155.95 442.07 143.41 433.148 135.376 417.832C120.161 388.831 116.953 351.248 117.27 319.033C117.598 284.872 123.905 251.032 135.907 219.046C157.373 162.016 198.397 110.049 250.473 77.7719C255.517 76.9703 260.605 76.4749 265.708 76.2886C299.158 75.1272 329.533 89.8374 348.847 117.266C357.394 129.372 363.159 142.83 366.769 156.91ZM345.804 88.6992C353.901 99.7432 359.213 112.583 362.501 126.13C352.53 106.837 337.453 90.5434 315.797 79.8323C299.586 71.8132 281.64 69.0292 263.83 70.1605C277.635 63.2426 292.752 59.0625 308.26 62.6666C323.438 66.2051 336.679 76.2668 345.801 88.7041L345.804 88.6992Z" fill="#E20D24"/>
</svg>
